# xmcd CD database file generated by Grip 2.99.0
# 
# Track frame offsets:
#       150
#       25941
#       48129
#       66457
#       77245
#       95734
#       116847
#       136048
#       155208
#       178777
#       199497
#       224141
# 
# Disc length: 3450 seconds
# 
# Revision: 1
# Processed by: cddbd v1.5.1PL0 Copyright (c) Steve Scherf et al.
# Submitted via: Grip 2.99.0
# 
DISCID=bc0d780c
DTITLE=John Lee Hooker Jr. - Blues With A Vengeance
DYEAR=2004
DGENRE=Blues
TTITLE0=Suspicious
TTITLE1=Check Yourself
TTITLE2=Blues Ain't Nothin' But A Pimp
TTITLE3=Dimples
TTITLE4=She Wasn't Nothin' But A Devil
TTITLE5=Boom Boom
TTITLE6=Keep It Real
TTITLE7=I'm Leavin'
TTITLE8=Goin' Down To Baghdad
TTITLE9=Stormy Monday
TTITLE10=Groove Thang
TTITLE11=One Bourbon, One Scotch, One Beer
EXTD=
EXTT0=
EXTT1=
EXTT2=
EXTT3=
EXTT4=
EXTT5=
EXTT6=
EXTT7=
EXTT8=
EXTT9=
EXTT10=
EXTT11=
PLAYORDER=
